<?xml version="1.0" encoding="utf-8"?>
<!-- Designed by Vexels.com - 2016 All Rights Reserved - https://vexels.com/terms-and-conditions/  -->

<svg version="1.1" id="Layer_1" xmlns="http://www.w3.org/2000/svg" xmlns:xlink="http://www.w3.org/1999/xlink" x="0px" y="0px"
	 width="1200px" height="1200px" viewBox="0 0 1200 1200" enable-background="new 0 0 1200 1200" xml:space="preserve">
<g>
	<path fill="#575756" d="M55.259,692.999l34.455-46.933c61.124,1.674,120.145,2.452,176.791,2.452
		c256.956,0,465.399-15.474,604.933-30.113c145.179-15.165,242.081-32.023,278.561-38.854c-1.206,4.204-5.723,9.323-15.69,15.339
		L969.276,710.304c0,0-46.174,34.65-138.483,39.245H141.766C141.766,749.548,24.073,748.4,55.259,692.999z"/>
	<path fill="#575756" d="M870.504,605.244c145.023-15.163,241.732-31.943,278.095-38.796c-4.866-6.54-17.715-9.383-17.715-9.383
		c-25.383-13.84-326.603-43.838-326.603-43.838l-117.733-54.271c-26.551-18.454-33.482-1.13-33.482-1.13
		c-19.622,5.763-47.302,13.842-47.302,13.842c-173.134,23.087-261.977,110.8-261.977,110.8l-94.646,11.526
		c-8.097-18.474-25.421-13.842-25.421-13.842C51.755,600.943,97.929,619.397,97.929,619.397c6.891,3.464-1.128,11.563-1.128,11.563
		l-1.519,2.023C430.685,641.938,701.343,622.959,870.504,605.244z M608.1,483.99l-1.052,1.013l59.334,64.219l-279.807,29.745
		c-27.877,2.492-3.582-9.169-3.582-9.169C443.688,522.397,566.208,492.983,608.1,483.99z M748.178,540.559l-62.681,6.638
		l-61.437-66.476c22.114-4.906,49.796-10.182,49.796-10.182l103.871,48.472C794.47,528.917,748.178,540.559,748.178,540.559z"/>
</g>
</svg>
